<mxfile host="www.draw.io" modified="2020-06-04T18:49:39.586Z" agent="5.0 (Windows NT 10.0; Win64; x64) AppleWebKit/537.36 (KHTML, like Gecko) Code/1.45.1 Chrome/78.0.3904.130 Electron/7.2.4 Safari/537.36" etag="eCCN9L0cXY5Yf0BlOSPu" version="13.1.14">
    <diagram id="6hGFLwfOUW9BJ-s0fimq" name="Page-1">
        <mxGraphModel dx="206" dy="76" grid="1" gridSize="10" guides="1" tooltips="1" connect="1" arrows="1" fold="1" page="1" pageScale="1" pageWidth="827" pageHeight="1169" math="0" shadow="0">
            <root>
                <mxCell id="0"/>
                <mxCell id="1" parent="0"/>
                <mxCell id="227" value="" style="group" parent="1" vertex="1" connectable="0">
                    <mxGeometry x="440" y="520" width="320" height="160" as="geometry"/>
                </mxCell>
                <mxCell id="210" value="-3" style="rounded=0;whiteSpace=wrap;html=1;fontSize=16;" parent="227" vertex="1">
                    <mxGeometry width="320" height="40" as="geometry"/>
                </mxCell>
                <mxCell id="212" value="-3" style="rounded=0;whiteSpace=wrap;html=1;fontSize=16;fillColor=#ffffee;" parent="227" vertex="1">
                    <mxGeometry x="160" y="40" width="160" height="40" as="geometry"/>
                </mxCell>
                <mxCell id="214" value="2" style="rounded=0;whiteSpace=wrap;html=1;fontSize=16;fillColor=#FFFFdd;" parent="227" vertex="1">
                    <mxGeometry x="80" y="80" width="80" height="40" as="geometry"/>
                </mxCell>
                <mxCell id="216" value="2" style="rounded=0;whiteSpace=wrap;html=1;fontSize=16;fillColor=#FFFFdd;" parent="227" vertex="1">
                    <mxGeometry x="240" y="80" width="80" height="40" as="geometry"/>
                </mxCell>
                <mxCell id="218" value="7" style="rounded=0;whiteSpace=wrap;html=1;fontSize=16;fillColor=#FFFFcc;" parent="227" vertex="1">
                    <mxGeometry x="40" y="120" width="40" height="40" as="geometry"/>
                </mxCell>
                <mxCell id="220" value="5" style="rounded=0;whiteSpace=wrap;html=1;fontSize=16;fillColor=#FFFFcc;" parent="227" vertex="1">
                    <mxGeometry x="120" y="120" width="40" height="40" as="geometry"/>
                </mxCell>
                <mxCell id="222" value="-3" style="rounded=0;whiteSpace=wrap;html=1;fontSize=16;fillColor=#FFFFcc;" parent="227" vertex="1">
                    <mxGeometry x="200" y="120" width="40" height="40" as="geometry"/>
                </mxCell>
                <mxCell id="224" value="2" style="rounded=0;whiteSpace=wrap;html=1;fontSize=16;fillColor=#FFFFcc;" parent="227" vertex="1">
                    <mxGeometry x="280" y="120" width="40" height="40" as="geometry"/>
                </mxCell>
                <mxCell id="230" value="" style="group" parent="227" vertex="1" connectable="0">
                    <mxGeometry y="40" width="280" height="120" as="geometry"/>
                </mxCell>
                <mxCell id="211" value="" style="rounded=0;whiteSpace=wrap;html=1;fontSize=16;fillColor=#dae8fc;strokeColor=#6c8ebf;strokeWidth=3;" parent="230" vertex="1">
                    <mxGeometry width="160" height="40" as="geometry"/>
                </mxCell>
                <mxCell id="213" value="3" style="rounded=0;whiteSpace=wrap;html=1;fontSize=16;fillColor=#dae8fc;strokeColor=#6c8ebf;" parent="230" vertex="1">
                    <mxGeometry y="40" width="80" height="40" as="geometry"/>
                </mxCell>
                <mxCell id="215" value="" style="rounded=0;whiteSpace=wrap;html=1;fontSize=16;fillColor=#dae8fc;strokeColor=#6c8ebf;strokeWidth=3;" parent="230" vertex="1">
                    <mxGeometry x="160" y="40" width="80" height="40" as="geometry"/>
                </mxCell>
                <mxCell id="217" value="3" style="rounded=0;whiteSpace=wrap;html=1;fontSize=16;fillColor=#dae8fc;strokeColor=#6c8ebf;strokeWidth=3;" parent="230" vertex="1">
                    <mxGeometry y="80" width="40" height="40" as="geometry"/>
                </mxCell>
                <mxCell id="219" value="2" style="rounded=0;whiteSpace=wrap;html=1;fontSize=16;fillColor=#dae8fc;strokeColor=#6c8ebf;strokeWidth=3;" parent="230" vertex="1">
                    <mxGeometry x="80" y="80" width="40" height="40" as="geometry"/>
                </mxCell>
                <mxCell id="221" value="4" style="rounded=0;whiteSpace=wrap;html=1;fontSize=16;fillColor=#dae8fc;strokeColor=#6c8ebf;strokeWidth=3;" parent="230" vertex="1">
                    <mxGeometry x="160" y="80" width="40" height="40" as="geometry"/>
                </mxCell>
                <mxCell id="223" value="" style="rounded=0;whiteSpace=wrap;html=1;fontSize=16;fillColor=#dae8fc;strokeColor=#6c8ebf;strokeWidth=3;" parent="230" vertex="1">
                    <mxGeometry x="240" y="80" width="40" height="40" as="geometry"/>
                </mxCell>
                <mxCell id="272" value="" style="group" parent="230" vertex="1" connectable="0">
                    <mxGeometry x="67.5" y="7.5" width="145" height="65" as="geometry"/>
                </mxCell>
                <mxCell id="273" value="" style="group" parent="272" vertex="1" connectable="0">
                    <mxGeometry width="145" height="65" as="geometry"/>
                </mxCell>
                <mxCell id="231" value="-3" style="rounded=1;whiteSpace=wrap;html=1;fillColor=none;fontSize=16;strokeColor=#b85450;" parent="273" vertex="1">
                    <mxGeometry x="120" y="40" width="25" height="25" as="geometry"/>
                </mxCell>
                <mxCell id="253" value="2" style="rounded=1;whiteSpace=wrap;html=1;fillColor=none;fontSize=16;strokeColor=#b85450;" parent="273" vertex="1">
                    <mxGeometry width="25" height="25" as="geometry"/>
                </mxCell>
                <mxCell id="233" style="edgeStyle=none;rounded=0;orthogonalLoop=1;jettySize=auto;html=1;exitX=0;exitY=0.25;exitDx=0;exitDy=0;entryX=0.875;entryY=0.75;entryDx=0;entryDy=0;entryPerimeter=0;endArrow=block;endFill=0;strokeWidth=2;fontSize=16;fillColor=#f8cecc;strokeColor=#b85450;" parent="230" source="231" target="211" edge="1">
                    <mxGeometry relative="1" as="geometry"/>
                </mxCell>
                <mxCell id="320" value="3" style="rounded=0;whiteSpace=wrap;html=1;fontSize=16;fillColor=#dae8fc;strokeColor=#6c8ebf;strokeWidth=3;" parent="230" vertex="1">
                    <mxGeometry y="40" width="80" height="40" as="geometry"/>
                </mxCell>
                <mxCell id="185" value="" style="group;strokeColor=#000000;" parent="1" vertex="1" connectable="0">
                    <mxGeometry x="40" y="520" width="320" height="160" as="geometry"/>
                </mxCell>
                <mxCell id="142" value="2" style="rounded=0;whiteSpace=wrap;html=1;fontSize=16;fillColor=#FFFFee;" parent="185" vertex="1">
                    <mxGeometry y="40" width="160" height="40" as="geometry"/>
                </mxCell>
                <mxCell id="144" value="3" style="rounded=0;whiteSpace=wrap;html=1;fontSize=16;fillColor=#FFFFdd;" parent="185" vertex="1">
                    <mxGeometry y="80" width="80" height="40" as="geometry"/>
                </mxCell>
                <mxCell id="146" value="-3" style="rounded=0;whiteSpace=wrap;html=1;fontSize=16;fillColor=#FFFFdd;" parent="185" vertex="1">
                    <mxGeometry x="160" y="80" width="80" height="40" as="geometry"/>
                </mxCell>
                <mxCell id="148" value="3" style="rounded=0;whiteSpace=wrap;html=1;fontSize=16;fillColor=#FFffcc;" parent="185" vertex="1">
                    <mxGeometry y="120" width="40" height="40" as="geometry"/>
                </mxCell>
                <mxCell id="150" value="" style="rounded=0;whiteSpace=wrap;html=1;fontSize=16;fillColor=#FFffcc;" parent="185" vertex="1">
                    <mxGeometry x="80" y="120" width="40" height="40" as="geometry"/>
                </mxCell>
                <mxCell id="152" value="4" style="rounded=0;whiteSpace=wrap;html=1;fontSize=16;fillColor=#FFffcc;" parent="185" vertex="1">
                    <mxGeometry x="160" y="120" width="40" height="40" as="geometry"/>
                </mxCell>
                <mxCell id="154" value="11" style="rounded=0;whiteSpace=wrap;html=1;fontSize=16;fillColor=#FFffcc;" parent="185" vertex="1">
                    <mxGeometry x="240" y="120" width="40" height="40" as="geometry"/>
                </mxCell>
                <mxCell id="141" value="-3" style="rounded=0;whiteSpace=wrap;html=1;fontSize=16;fillColor=#d5e8d4;strokeColor=#82b366;strokeWidth=3;" parent="185" vertex="1">
                    <mxGeometry width="320" height="40" as="geometry"/>
                </mxCell>
                <mxCell id="77" value="-3" style="group" parent="1" vertex="1" connectable="0">
                    <mxGeometry x="40" y="40" width="320" height="160" as="geometry"/>
                </mxCell>
                <mxCell id="78" value="0" style="rounded=0;whiteSpace=wrap;html=1;fontSize=16;" parent="77" vertex="1">
                    <mxGeometry width="320" height="40" as="geometry"/>
                </mxCell>
                <mxCell id="79" value="0" style="rounded=0;whiteSpace=wrap;html=1;fontSize=16;fillColor=#ffffee;" parent="77" vertex="1">
                    <mxGeometry y="40" width="160" height="40" as="geometry"/>
                </mxCell>
                <mxCell id="80" value="+4" style="rounded=0;whiteSpace=wrap;html=1;fontSize=16;fillColor=#ffffee;" parent="77" vertex="1">
                    <mxGeometry x="160" y="40" width="160" height="40" as="geometry"/>
                </mxCell>
                <mxCell id="81" value="0" style="rounded=0;whiteSpace=wrap;html=1;fontSize=16;fillColor=#FFFFdd;" parent="77" vertex="1">
                    <mxGeometry y="80" width="80" height="40" as="geometry"/>
                </mxCell>
                <mxCell id="82" value="+4" style="rounded=0;whiteSpace=wrap;html=1;fontSize=16;fillColor=#FFFFdd;" parent="77" vertex="1">
                    <mxGeometry x="80" y="80" width="80" height="40" as="geometry"/>
                </mxCell>
                <mxCell id="83" value="0" style="rounded=0;whiteSpace=wrap;html=1;fontSize=16;fillColor=#FFFFdd;" parent="77" vertex="1">
                    <mxGeometry x="160" y="80" width="80" height="40" as="geometry"/>
                </mxCell>
                <mxCell id="84" value="0" style="rounded=0;whiteSpace=wrap;html=1;fontSize=16;fillColor=#FFFFdd;" parent="77" vertex="1">
                    <mxGeometry x="240" y="80" width="80" height="40" as="geometry"/>
                </mxCell>
                <mxCell id="85" value="+3" style="rounded=0;whiteSpace=wrap;html=1;fontSize=16;fillColor=#FFFFcc;" parent="77" vertex="1">
                    <mxGeometry y="120" width="40" height="40" as="geometry"/>
                </mxCell>
                <mxCell id="86" value="+7" style="rounded=0;whiteSpace=wrap;html=1;fontSize=16;fillColor=#FFFFcc;" parent="77" vertex="1">
                    <mxGeometry x="40" y="120" width="40" height="40" as="geometry"/>
                </mxCell>
                <mxCell id="87" value="+5" style="rounded=0;whiteSpace=wrap;html=1;fontSize=16;fillColor=#FFFFcc;" parent="77" vertex="1">
                    <mxGeometry x="80" y="120" width="40" height="40" as="geometry"/>
                </mxCell>
                <mxCell id="88" value="+5" style="rounded=0;whiteSpace=wrap;html=1;fontSize=16;fillColor=#FFFFcc;" parent="77" vertex="1">
                    <mxGeometry x="120" y="120" width="40" height="40" as="geometry"/>
                </mxCell>
                <mxCell id="89" value="+4" style="rounded=0;whiteSpace=wrap;html=1;fontSize=16;fillColor=#FFFFcc;" parent="77" vertex="1">
                    <mxGeometry x="160" y="120" width="40" height="40" as="geometry"/>
                </mxCell>
                <mxCell id="90" value="-3" style="rounded=0;whiteSpace=wrap;html=1;fontSize=16;fillColor=#FFFFcc;" parent="77" vertex="1">
                    <mxGeometry x="200" y="120" width="40" height="40" as="geometry"/>
                </mxCell>
                <mxCell id="91" value="+11" style="rounded=0;whiteSpace=wrap;html=1;fontSize=16;fillColor=#FFFFcc;" parent="77" vertex="1">
                    <mxGeometry x="240" y="120" width="40" height="40" as="geometry"/>
                </mxCell>
                <mxCell id="92" value="+2" style="rounded=0;whiteSpace=wrap;html=1;fontSize=16;fillColor=#FFFFcc;" parent="77" vertex="1">
                    <mxGeometry x="280" y="120" width="40" height="40" as="geometry"/>
                </mxCell>
                <mxCell id="184" value="" style="group" parent="1" vertex="1" connectable="0">
                    <mxGeometry x="127.5" y="550" width="318.75" height="182.5" as="geometry"/>
                </mxCell>
                <mxCell id="181" value="" style="group" parent="184" vertex="1" connectable="0">
                    <mxGeometry x="-47.5" y="10" width="366.25" height="172.5" as="geometry"/>
                </mxCell>
                <mxCell id="143" value="" style="rounded=0;whiteSpace=wrap;html=1;fontSize=16;fillColor=#d5e8d4;strokeColor=#82b366;strokeWidth=3;" parent="181" vertex="1">
                    <mxGeometry x="120" width="160" height="40" as="geometry"/>
                </mxCell>
                <mxCell id="145" value="" style="rounded=0;whiteSpace=wrap;html=1;fontSize=16;fillColor=#d5e8d4;strokeColor=#82b366;strokeWidth=3;" parent="181" vertex="1">
                    <mxGeometry x="40" y="40" width="80" height="40" as="geometry"/>
                </mxCell>
                <mxCell id="147" value="2" style="rounded=0;whiteSpace=wrap;html=1;fontSize=16;fillColor=#d5e8d4;strokeColor=#82b366;strokeWidth=3;" parent="181" vertex="1">
                    <mxGeometry x="200" y="40" width="80" height="40" as="geometry"/>
                </mxCell>
                <mxCell id="149" value="7" style="rounded=0;whiteSpace=wrap;html=1;fontSize=16;fillColor=#d5e8d4;strokeColor=#82b366;strokeWidth=3;" parent="181" vertex="1">
                    <mxGeometry y="80" width="40" height="40" as="geometry"/>
                </mxCell>
                <mxCell id="151" value="5" style="rounded=0;whiteSpace=wrap;html=1;fontSize=16;fillColor=#d5e8d4;strokeColor=#82b366;strokeWidth=3;" parent="181" vertex="1">
                    <mxGeometry x="80" y="80" width="40" height="40" as="geometry"/>
                </mxCell>
                <mxCell id="153" value="-3" style="rounded=0;whiteSpace=wrap;html=1;fontSize=16;fillColor=#d5e8d4;strokeColor=#82b366;strokeWidth=3;" parent="181" vertex="1">
                    <mxGeometry x="160" y="80" width="40" height="40" as="geometry"/>
                </mxCell>
                <mxCell id="155" value="2" style="rounded=0;whiteSpace=wrap;html=1;fontSize=16;fillColor=#d5e8d4;strokeColor=#82b366;strokeWidth=3;" parent="181" vertex="1">
                    <mxGeometry x="240" y="80" width="40" height="40" as="geometry"/>
                </mxCell>
                <mxCell id="180" style="edgeStyle=none;rounded=0;orthogonalLoop=1;jettySize=auto;html=1;exitX=1;exitY=0;exitDx=0;exitDy=0;endArrow=block;endFill=0;strokeWidth=2;fontSize=16;fillColor=#f8cecc;strokeColor=#b85450;" parent="184" source="168" edge="1">
                    <mxGeometry relative="1" as="geometry">
                        <mxPoint x="252.5" as="targetPoint"/>
                    </mxGeometry>
                </mxCell>
                <mxCell id="156" value="2" style="ellipse;whiteSpace=wrap;html=1;fontSize=16;fillColor=none;strokeColor=#b85450;dashed=1;" parent="184" vertex="1">
                    <mxGeometry y="97.5" width="25" height="25" as="geometry"/>
                </mxCell>
                <mxCell id="157" style="edgeStyle=none;rounded=0;orthogonalLoop=1;jettySize=auto;html=1;exitX=1;exitY=0;exitDx=0;exitDy=0;strokeWidth=2;fontSize=16;fillColor=#f8cecc;strokeColor=#b85450;endArrow=block;endFill=0;" parent="184" source="158" edge="1">
                    <mxGeometry relative="1" as="geometry">
                        <mxPoint x="92.5" y="40" as="targetPoint"/>
                    </mxGeometry>
                </mxCell>
                <mxCell id="158" value="2" style="ellipse;whiteSpace=wrap;html=1;fontSize=16;fillColor=none;strokeColor=#b85450;" parent="184" vertex="1">
                    <mxGeometry x="20" y="57.5" width="25" height="25" as="geometry"/>
                </mxCell>
                <mxCell id="161" style="rounded=0;orthogonalLoop=1;jettySize=auto;html=1;exitX=0.5;exitY=0;exitDx=0;exitDy=0;fontSize=16;strokeWidth=2;fillColor=#f8cecc;strokeColor=#b85450;endArrow=block;endFill=0;" parent="184" source="156" edge="1">
                    <mxGeometry relative="1" as="geometry">
                        <mxPoint x="12.5" y="80" as="targetPoint"/>
                    </mxGeometry>
                </mxCell>
                <mxCell id="168" value="-3" style="ellipse;whiteSpace=wrap;html=1;fontSize=16;fillColor=none;strokeColor=#b85450;" parent="184" vertex="1">
                    <mxGeometry x="140" y="17.5" width="25" height="25" as="geometry"/>
                </mxCell>
                <mxCell id="232" style="edgeStyle=none;rounded=0;orthogonalLoop=1;jettySize=auto;html=1;exitX=0;exitY=0.25;exitDx=0;exitDy=0;entryX=0.875;entryY=0.75;entryDx=0;entryDy=0;entryPerimeter=0;endArrow=block;endFill=0;strokeWidth=2;fontSize=16;fillColor=#f8cecc;strokeColor=#b85450;" parent="1" source="226" target="215" edge="1">
                    <mxGeometry relative="1" as="geometry"/>
                </mxCell>
                <mxCell id="226" value="11" style="rounded=1;whiteSpace=wrap;html=1;fillColor=none;fontSize=16;strokeColor=#b85450;" parent="1" vertex="1">
                    <mxGeometry x="687.5" y="647.5" width="25" height="25" as="geometry"/>
                </mxCell>
                <mxCell id="254" style="edgeStyle=none;rounded=0;orthogonalLoop=1;jettySize=auto;html=1;exitX=0;exitY=0.25;exitDx=0;exitDy=0;endArrow=block;endFill=0;strokeWidth=2;fontSize=16;fillColor=#f8cecc;strokeColor=#b85450;" parent="1" source="253" edge="1">
                    <mxGeometry relative="1" as="geometry">
                        <mxPoint x="420" y="550" as="targetPoint"/>
                    </mxGeometry>
                </mxCell>
                <mxCell id="321" value="-3" style="group" vertex="1" connectable="0" parent="1">
                    <mxGeometry x="40" y="280" width="320" height="160" as="geometry"/>
                </mxCell>
                <mxCell id="322" value="" style="rounded=0;whiteSpace=wrap;html=1;fontSize=16;" vertex="1" parent="321">
                    <mxGeometry width="320" height="40" as="geometry"/>
                </mxCell>
                <mxCell id="323" value="" style="rounded=0;whiteSpace=wrap;html=1;fontSize=16;fillColor=#ffffee;" vertex="1" parent="321">
                    <mxGeometry y="40" width="160" height="40" as="geometry"/>
                </mxCell>
                <mxCell id="324" value="+4" style="rounded=0;whiteSpace=wrap;html=1;fontSize=16;fillColor=#ffffee;" vertex="1" parent="321">
                    <mxGeometry x="160" y="40" width="160" height="40" as="geometry"/>
                </mxCell>
                <mxCell id="325" value="0" style="rounded=0;whiteSpace=wrap;html=1;fontSize=16;fillColor=#FFFFdd;" vertex="1" parent="321">
                    <mxGeometry y="80" width="80" height="40" as="geometry"/>
                </mxCell>
                <mxCell id="326" value="" style="rounded=0;whiteSpace=wrap;html=1;fontSize=16;fillColor=#FFFFdd;" vertex="1" parent="321">
                    <mxGeometry x="80" y="80" width="80" height="40" as="geometry"/>
                </mxCell>
                <mxCell id="327" value="0" style="rounded=0;whiteSpace=wrap;html=1;fontSize=16;fillColor=#FFFFdd;" vertex="1" parent="321">
                    <mxGeometry x="160" y="80" width="80" height="40" as="geometry"/>
                </mxCell>
                <mxCell id="328" value="0" style="rounded=0;whiteSpace=wrap;html=1;fontSize=16;fillColor=#FFFFdd;" vertex="1" parent="321">
                    <mxGeometry x="240" y="80" width="80" height="40" as="geometry"/>
                </mxCell>
                <mxCell id="329" value="+3" style="rounded=0;whiteSpace=wrap;html=1;fontSize=16;fillColor=#FFFFcc;" vertex="1" parent="321">
                    <mxGeometry y="120" width="40" height="40" as="geometry"/>
                </mxCell>
                <mxCell id="330" value="+7" style="rounded=0;whiteSpace=wrap;html=1;fontSize=16;fillColor=#FFFFcc;" vertex="1" parent="321">
                    <mxGeometry x="40" y="120" width="40" height="40" as="geometry"/>
                </mxCell>
                <mxCell id="331" value="" style="rounded=0;whiteSpace=wrap;html=1;fontSize=16;fillColor=#FFFFcc;" vertex="1" parent="321">
                    <mxGeometry x="80" y="120" width="40" height="40" as="geometry"/>
                </mxCell>
                <mxCell id="332" value="+5" style="rounded=0;whiteSpace=wrap;html=1;fontSize=16;fillColor=#FFFFcc;" vertex="1" parent="321">
                    <mxGeometry x="120" y="120" width="40" height="40" as="geometry"/>
                </mxCell>
                <mxCell id="333" value="+4" style="rounded=0;whiteSpace=wrap;html=1;fontSize=16;fillColor=#FFFFcc;" vertex="1" parent="321">
                    <mxGeometry x="160" y="120" width="40" height="40" as="geometry"/>
                </mxCell>
                <mxCell id="334" value="-3" style="rounded=0;whiteSpace=wrap;html=1;fontSize=16;fillColor=#FFFFcc;" vertex="1" parent="321">
                    <mxGeometry x="200" y="120" width="40" height="40" as="geometry"/>
                </mxCell>
                <mxCell id="335" value="+11" style="rounded=0;whiteSpace=wrap;html=1;fontSize=16;fillColor=#FFFFcc;" vertex="1" parent="321">
                    <mxGeometry x="240" y="120" width="40" height="40" as="geometry"/>
                </mxCell>
                <mxCell id="336" value="+2" style="rounded=0;whiteSpace=wrap;html=1;fontSize=16;fillColor=#FFFFcc;" vertex="1" parent="321">
                    <mxGeometry x="280" y="120" width="40" height="40" as="geometry"/>
                </mxCell>
                <mxCell id="343" style="rounded=0;orthogonalLoop=1;jettySize=auto;html=1;entryX=0.25;entryY=0.75;entryDx=0;entryDy=0;endArrow=block;endFill=0;fillColor=#f8cecc;strokeColor=#b85450;strokeWidth=2;entryPerimeter=0;" edge="1" parent="321" source="337" target="326">
                    <mxGeometry relative="1" as="geometry"/>
                </mxCell>
                <mxCell id="337" value="+5" style="ellipse;whiteSpace=wrap;html=1;fontSize=16;fillColor=none;strokeColor=#b85450;" vertex="1" parent="321">
                    <mxGeometry x="87.5" y="127.5" width="25" height="25" as="geometry"/>
                </mxCell>
                <mxCell id="344" value="" style="edgeStyle=none;rounded=0;orthogonalLoop=1;jettySize=auto;html=1;endArrow=block;endFill=0;strokeWidth=2;exitX=0.5;exitY=0;exitDx=0;exitDy=0;entryX=0.75;entryY=0.75;entryDx=0;entryDy=0;fillColor=#f8cecc;strokeColor=#b85450;entryPerimeter=0;" edge="1" parent="321" source="340" target="323">
                    <mxGeometry relative="1" as="geometry"/>
                </mxCell>
                <mxCell id="340" value="+4" style="ellipse;whiteSpace=wrap;html=1;fontSize=16;fillColor=none;strokeColor=#b85450;" vertex="1" parent="321">
                    <mxGeometry x="107.5" y="87.5" width="25" height="25" as="geometry"/>
                </mxCell>
                <mxCell id="346" value="" style="edgeStyle=none;rounded=0;orthogonalLoop=1;jettySize=auto;html=1;endArrow=block;endFill=0;strokeWidth=2;entryX=0.25;entryY=0.75;entryDx=0;entryDy=0;exitX=0.5;exitY=0;exitDx=0;exitDy=0;fillColor=#f8cecc;strokeColor=#b85450;entryPerimeter=0;" edge="1" parent="321" source="341" target="322">
                    <mxGeometry relative="1" as="geometry">
                        <mxPoint x="80" y="-32.5" as="targetPoint"/>
                    </mxGeometry>
                </mxCell>
                <mxCell id="341" value="0" style="ellipse;whiteSpace=wrap;html=1;fontSize=16;fillColor=none;strokeColor=#b85450;" vertex="1" parent="321">
                    <mxGeometry x="67.5" y="47.5" width="25" height="25" as="geometry"/>
                </mxCell>
                <mxCell id="348" value="" style="edgeStyle=none;rounded=0;orthogonalLoop=1;jettySize=auto;html=1;endArrow=block;endFill=0;strokeWidth=2;fillColor=#f8cecc;strokeColor=#b85450;" edge="1" parent="321" source="342">
                    <mxGeometry relative="1" as="geometry">
                        <mxPoint x="160" y="-10" as="targetPoint"/>
                    </mxGeometry>
                </mxCell>
                <mxCell id="342" value="0" style="ellipse;whiteSpace=wrap;html=1;fontSize=16;fillColor=none;strokeColor=#b85450;" vertex="1" parent="321">
                    <mxGeometry x="147.5" y="7.5" width="25" height="25" as="geometry"/>
                </mxCell>
                <mxCell id="349" value="-3" style="group" vertex="1" connectable="0" parent="1">
                    <mxGeometry x="40" y="800" width="320" height="160" as="geometry"/>
                </mxCell>
                <mxCell id="350" value="0" style="rounded=0;whiteSpace=wrap;html=1;fontSize=16;" vertex="1" parent="349">
                    <mxGeometry width="320" height="40" as="geometry"/>
                </mxCell>
                <mxCell id="351" value="0" style="rounded=0;whiteSpace=wrap;html=1;fontSize=16;fillColor=#ffffee;" vertex="1" parent="349">
                    <mxGeometry y="40" width="160" height="40" as="geometry"/>
                </mxCell>
                <mxCell id="352" value="+4" style="rounded=0;whiteSpace=wrap;html=1;fontSize=16;fillColor=#ffffee;" vertex="1" parent="349">
                    <mxGeometry x="160" y="40" width="160" height="40" as="geometry"/>
                </mxCell>
                <mxCell id="353" value="0" style="rounded=0;whiteSpace=wrap;html=1;fontSize=16;fillColor=#FFFFdd;" vertex="1" parent="349">
                    <mxGeometry y="80" width="80" height="40" as="geometry"/>
                </mxCell>
                <mxCell id="356" value="0" style="rounded=0;whiteSpace=wrap;html=1;fontSize=16;fillColor=#FFFFdd;" vertex="1" parent="349">
                    <mxGeometry x="240" y="80" width="80" height="40" as="geometry"/>
                </mxCell>
                <mxCell id="357" value="+3" style="rounded=0;whiteSpace=wrap;html=1;fontSize=16;fillColor=#FFFFcc;" vertex="1" parent="349">
                    <mxGeometry y="120" width="40" height="40" as="geometry"/>
                </mxCell>
                <mxCell id="359" value="+5" style="rounded=0;whiteSpace=wrap;html=1;fontSize=16;fillColor=#FFFFcc;" vertex="1" parent="349">
                    <mxGeometry x="80" y="120" width="40" height="40" as="geometry"/>
                </mxCell>
                <mxCell id="360" value="+5" style="rounded=0;whiteSpace=wrap;html=1;fontSize=16;fillColor=#FFFFcc;" vertex="1" parent="349">
                    <mxGeometry x="120" y="120" width="40" height="40" as="geometry"/>
                </mxCell>
                <mxCell id="361" value="+4" style="rounded=0;whiteSpace=wrap;html=1;fontSize=16;fillColor=#FFFFcc;" vertex="1" parent="349">
                    <mxGeometry x="160" y="120" width="40" height="40" as="geometry"/>
                </mxCell>
                <mxCell id="362" value="-3" style="rounded=0;whiteSpace=wrap;html=1;fontSize=16;fillColor=#FFFFcc;" vertex="1" parent="349">
                    <mxGeometry x="200" y="120" width="40" height="40" as="geometry"/>
                </mxCell>
                <mxCell id="363" value="+11" style="rounded=0;whiteSpace=wrap;html=1;fontSize=16;fillColor=#FFFFcc;" vertex="1" parent="349">
                    <mxGeometry x="240" y="120" width="40" height="40" as="geometry"/>
                </mxCell>
                <mxCell id="364" value="+2" style="rounded=0;whiteSpace=wrap;html=1;fontSize=16;fillColor=#FFFFcc;" vertex="1" parent="349">
                    <mxGeometry x="280" y="120" width="40" height="40" as="geometry"/>
                </mxCell>
                <mxCell id="358" value="+7→+9" style="rounded=0;whiteSpace=wrap;html=1;fontSize=10;fillColor=#f8cecc;strokeColor=#b85450;strokeWidth=3;" vertex="1" parent="349">
                    <mxGeometry x="40" y="120" width="40" height="40" as="geometry"/>
                </mxCell>
                <mxCell id="354" value="+4→+6" style="rounded=0;whiteSpace=wrap;html=1;fontSize=16;fillColor=#f8cecc;strokeColor=#b85450;strokeWidth=3;" vertex="1" parent="349">
                    <mxGeometry x="80" y="80" width="80" height="40" as="geometry"/>
                </mxCell>
                <mxCell id="355" value="0→+2" style="rounded=0;whiteSpace=wrap;html=1;fontSize=16;fillColor=#f8cecc;strokeColor=#b85450;strokeWidth=3;" vertex="1" parent="349">
                    <mxGeometry x="160" y="80" width="80" height="40" as="geometry"/>
                </mxCell>
                <mxCell id="410" value="-3" style="group" vertex="1" connectable="0" parent="1">
                    <mxGeometry x="440" y="800" width="320" height="160" as="geometry"/>
                </mxCell>
                <mxCell id="411" value="0" style="rounded=0;whiteSpace=wrap;html=1;fontSize=16;" vertex="1" parent="410">
                    <mxGeometry width="320" height="40" as="geometry"/>
                </mxCell>
                <mxCell id="412" value="0" style="rounded=0;whiteSpace=wrap;html=1;fontSize=16;fillColor=#ffffee;" vertex="1" parent="410">
                    <mxGeometry y="40" width="160" height="40" as="geometry"/>
                </mxCell>
                <mxCell id="413" value="+4" style="rounded=0;whiteSpace=wrap;html=1;fontSize=16;fillColor=#ffffee;" vertex="1" parent="410">
                    <mxGeometry x="160" y="40" width="160" height="40" as="geometry"/>
                </mxCell>
                <mxCell id="414" value="0" style="rounded=0;whiteSpace=wrap;html=1;fontSize=16;fillColor=#FFFFdd;" vertex="1" parent="410">
                    <mxGeometry y="80" width="80" height="40" as="geometry"/>
                </mxCell>
                <mxCell id="417" value="0" style="rounded=0;whiteSpace=wrap;html=1;fontSize=16;fillColor=#FFFFdd;" vertex="1" parent="410">
                    <mxGeometry x="240" y="80" width="80" height="40" as="geometry"/>
                </mxCell>
                <mxCell id="418" value="+3" style="rounded=0;whiteSpace=wrap;html=1;fontSize=16;fillColor=#FFFFcc;" vertex="1" parent="410">
                    <mxGeometry y="120" width="40" height="40" as="geometry"/>
                </mxCell>
                <mxCell id="420" value="+5" style="rounded=0;whiteSpace=wrap;html=1;fontSize=16;fillColor=#FFFFcc;" vertex="1" parent="410">
                    <mxGeometry x="80" y="120" width="40" height="40" as="geometry"/>
                </mxCell>
                <mxCell id="421" value="+5" style="rounded=0;whiteSpace=wrap;html=1;fontSize=16;fillColor=#FFFFcc;" vertex="1" parent="410">
                    <mxGeometry x="120" y="120" width="40" height="40" as="geometry"/>
                </mxCell>
                <mxCell id="422" value="+4" style="rounded=0;whiteSpace=wrap;html=1;fontSize=16;fillColor=#FFFFcc;" vertex="1" parent="410">
                    <mxGeometry x="160" y="120" width="40" height="40" as="geometry"/>
                </mxCell>
                <mxCell id="423" value="" style="rounded=0;whiteSpace=wrap;html=1;fontSize=16;fillColor=#FFFFcc;" vertex="1" parent="410">
                    <mxGeometry x="200" y="120" width="40" height="40" as="geometry"/>
                </mxCell>
                <mxCell id="424" value="+11" style="rounded=0;whiteSpace=wrap;html=1;fontSize=16;fillColor=#FFFFcc;" vertex="1" parent="410">
                    <mxGeometry x="240" y="120" width="40" height="40" as="geometry"/>
                </mxCell>
                <mxCell id="425" value="+2" style="rounded=0;whiteSpace=wrap;html=1;fontSize=16;fillColor=#FFFFcc;" vertex="1" parent="410">
                    <mxGeometry x="280" y="120" width="40" height="40" as="geometry"/>
                </mxCell>
                <mxCell id="415" value="" style="rounded=0;whiteSpace=wrap;html=1;fontSize=16;fillColor=#d5e8d4;strokeColor=#82b366;strokeWidth=3;" vertex="1" parent="410">
                    <mxGeometry x="80" y="80" width="80" height="40" as="geometry"/>
                </mxCell>
                <mxCell id="416" value="" style="rounded=0;whiteSpace=wrap;html=1;fontSize=16;fillColor=#dae8fc;strokeColor=#6c8ebf;strokeWidth=3;" vertex="1" parent="410">
                    <mxGeometry x="160" y="80" width="80" height="40" as="geometry"/>
                </mxCell>
                <mxCell id="419" value="" style="rounded=0;whiteSpace=wrap;html=1;fontSize=16;fillColor=#d5e8d4;strokeColor=#82b366;strokeWidth=3;" vertex="1" parent="410">
                    <mxGeometry x="40" y="120" width="40" height="40" as="geometry"/>
                </mxCell>
                <mxCell id="433" style="edgeStyle=none;rounded=0;orthogonalLoop=1;jettySize=auto;html=1;exitX=0;exitY=0.25;exitDx=0;exitDy=0;entryX=0.813;entryY=0.75;entryDx=0;entryDy=0;endArrow=block;endFill=0;strokeWidth=2;fontSize=10;fillColor=#f8cecc;strokeColor=#b85450;entryPerimeter=0;" edge="1" parent="410" source="426" target="412">
                    <mxGeometry relative="1" as="geometry"/>
                </mxCell>
                <mxCell id="426" value="0→+2" style="rounded=1;whiteSpace=wrap;html=1;fillColor=none;fontSize=16;strokeColor=#b85450;" vertex="1" parent="410">
                    <mxGeometry x="170" y="87.5" width="60" height="25" as="geometry"/>
                </mxCell>
                <mxCell id="432" style="edgeStyle=none;rounded=0;orthogonalLoop=1;jettySize=auto;html=1;exitX=1;exitY=0;exitDx=0;exitDy=0;endArrow=block;endFill=0;strokeWidth=2;fontSize=10;fillColor=#f8cecc;strokeColor=#b85450;" edge="1" parent="410" source="427">
                    <mxGeometry relative="1" as="geometry">
                        <mxPoint x="190" y="70" as="targetPoint"/>
                    </mxGeometry>
                </mxCell>
                <mxCell id="427" value="+4→+6" style="ellipse;whiteSpace=wrap;html=1;fontSize=16;fillColor=none;strokeColor=#b85450;" vertex="1" parent="410">
                    <mxGeometry x="90" y="87.5" width="60" height="25" as="geometry"/>
                </mxCell>
                <mxCell id="430" style="edgeStyle=none;rounded=0;orthogonalLoop=1;jettySize=auto;html=1;exitX=1;exitY=0;exitDx=0;exitDy=0;entryX=0.125;entryY=0.75;entryDx=0;entryDy=0;endArrow=block;endFill=0;strokeWidth=2;fontSize=10;fillColor=#f8cecc;strokeColor=#b85450;entryPerimeter=0;" edge="1" parent="410" source="429" target="415">
                    <mxGeometry relative="1" as="geometry"/>
                </mxCell>
                <mxCell id="429" value="&lt;font style=&quot;font-size: 10px&quot;&gt;+7→+9&lt;/font&gt;" style="ellipse;whiteSpace=wrap;html=1;fontSize=16;fillColor=none;strokeColor=#b85450;" vertex="1" parent="410">
                    <mxGeometry x="40" y="128.75" width="40" height="22.5" as="geometry"/>
                </mxCell>
                <mxCell id="436" value="" style="edgeStyle=none;rounded=0;orthogonalLoop=1;jettySize=auto;html=1;endArrow=block;endFill=0;strokeWidth=2;fontSize=10;entryX=0.833;entryY=0.9;entryDx=0;entryDy=0;fillColor=#f8cecc;strokeColor=#b85450;exitX=0.5;exitY=0;exitDx=0;exitDy=0;entryPerimeter=0;" edge="1" parent="410" source="435" target="426">
                    <mxGeometry relative="1" as="geometry"/>
                </mxCell>
                <mxCell id="435" value="-3" style="rounded=1;whiteSpace=wrap;html=1;fillColor=none;fontSize=16;strokeColor=#b85450;dashed=1;" vertex="1" parent="410">
                    <mxGeometry x="207.5" y="128.75" width="25" height="25" as="geometry"/>
                </mxCell>
            </root>
        </mxGraphModel>
    </diagram>
</mxfile>